<?xml version="1.0" encoding="utf-8"?>
<!-- Generator: Adobe Illustrator 21.1.0, SVG Export Plug-In . SVG Version: 6.00 Build 0)  -->
<svg version="1.1" id="Calque_1" xmlns="http://www.w3.org/2000/svg" xmlns:xlink="http://www.w3.org/1999/xlink" x="0px" y="0px"
	 viewBox="0 0 432 432" style="enable-background:new 0 0 432 432;" xml:space="preserve">
<style type="text/css">
	.st0{fill:#FBB03B;}
	.st1{fill:#AC5247;}
	.st2{fill:#F5967C;}
	.st3{fill:#962942;}
	.st4{fill:#E2896B;}
	.st5{fill:#D5ACAA;}
	.st6{fill:#DDCCC4;}
	.st7{fill:#F7C0AE;}
	.st8{fill:#1A1A1A;}
	.st9{fill:#0071BC;}
	.st10{fill:#7490A5;}
	.st11{fill:#D0876F;}
	.st12{fill:#E2AE74;}
	.st13{fill:#D14758;}
	.st14{fill:#D88460;}
	.st15{fill:#84422C;}
	.st16{fill:#3B4F84;}
	.st17{fill:#3F5584;}
	.st18{fill:#5796B4;}
	.st19{fill:#333333;}
	.st20{fill:#EB8390;}
	.st21{fill:#8A8DB4;}
	.st22{fill:#C4D0F0;}
	.st23{fill:#009245;}
	.st24{fill:#F7931E;}
	.st25{fill:#534741;}
	.st26{fill:#BF8271;}
	.st27{fill:#202749;}
	.st28{fill:#57678A;}
	.st29{fill:#F3A186;}
	.st30{fill:#C6966D;}
	.st31{fill:#516184;}
	.st32{fill:#5B8451;}
	.st33{fill:#C6836D;}
	.st34{fill:#C69C6D;}
	.st35{fill:#9B849C;}
	.st36{fill:#8CA562;}
	.st37{fill:#F5957C;}
	.st38{fill:#BC9688;}
	.st39{fill:#6E8DAF;}
	.st40{fill:#E28F74;}
	.st41{fill:#AF735E;}
	.st42{fill:#8193BB;}
	.st43{fill:#6F9147;}
	.st44{fill:#DD9F4E;}
	.st45{fill:#4F5F82;}
	.st46{fill:#52874F;}
	.st47{fill:#7A5D41;}
	.st48{fill:#808080;}
	.st49{fill:#98B58B;}
	.st50{fill:#E07F65;}
	.st51{fill:#736357;}
	.st52{fill:#E29774;}
	.st53{fill:#95543E;}
	.st54{fill:#66853E;}
	.st55{fill:#6B6871;}
	.st56{fill:#689B62;}
	.st57{fill:#A1BDBE;}
	.st58{fill:#999999;}
	.st59{fill:#A67C52;}
	.st60{fill:#E0D2BE;}
	.st61{fill:#A9B792;}
	.st62{fill:#7E8D66;}
	.st63{fill:#394587;}
	.st64{fill:#3E6D55;}
	.st65{fill:#3A735C;}
	.st66{fill:#C66B4C;}
	.st67{fill:#456C8C;}
	.st68{fill:#BF8E71;}
	.st69{fill:#6D9B65;}
	.st70{fill:#BF987D;}
	.st71{fill:#8F95B2;}
	.st72{fill:#5799A0;}
	.st73{fill:#857A71;}
	.st74{fill:#84686F;}
	.st75{fill:#E2B4A3;}
	.st76{fill:#718E9F;}
	.st77{fill:#B5748A;}
	.st78{fill:#A8766C;}
	.st79{fill:#9B657D;}
	.st80{fill:#9F6754;}
	.st81{fill:#11937F;}
	.st82{fill:#9A4B5E;}
	.st83{fill:#9AB580;}
	.st84{fill:#BD8579;}
	.st85{fill:#86A4B7;}
	.st86{fill:#6F9FB2;}
	.st87{fill:#B57E83;}
	.st88{fill:#B28C78;}
	.st89{fill:#254165;}
	.st90{fill:#79412E;}
	.st91{fill:#BA5A61;}
	.st92{fill:#4D4D4D;}
	.st93{fill:#96AF86;}
	.st94{fill:#EAAE60;}
	.st95{fill:#684033;}
	.st96{fill:#B57C6A;}
	.st97{fill:#C1272D;}
	.st98{fill:#447F7A;}
	.st99{fill:#7CBEB8;}
	.st100{fill:#76A3A1;}
	.st101{fill:#ECD580;}
	.st102{fill:#EB423D;}
	.st103{fill:#EE7A32;}
	.st104{fill:#9E8065;}
	.st105{fill:#231F20;}
	.st106{fill:#725740;}
	.st107{fill:#504657;}
	.st108{fill:#6A5B75;}
	.st109{fill:#BC842C;}
	.st110{fill:#673E46;}
	.st111{fill:#BB808C;}
	.st112{fill:#8E2C40;}
	.st113{fill:#75967E;}
	.st114{fill:#B9AA85;}
	.st115{fill:#9898AF;}
	.st116{fill:#9EC7C8;}
	.st117{fill:#BBBDBF;}
	.st118{fill:#CEACB4;}
	.st119{fill:#DC986F;}
	.st120{fill:#B01E69;}
	.st121{fill:#FFFFFF;}
	.st122{fill:#C19CAF;}
	.st123{fill:#B59736;}
	.st124{fill:#1E8C92;}
	.st125{fill:#9F4868;}
	.st126{fill:#A9B0CF;}
	.st127{fill:#B7768E;}
	.st128{fill:#617C68;}
	.st129{fill:#BB5666;}
	.st130{fill:#C3AEB5;}
</style>
<g>
	<path class="st25" d="M120.4,186.4c-0.3,0.3-0.6,0.5-0.8,0.7c-0.6,0.6-1.2,1.1-1.8,1.7c-1.1,1.1-2.4,1.5-3.9,1.3
		c-1.3-0.2-2.5-0.4-3.8-0.7c-1.3-0.3-2.7-0.5-4.1-0.8c-0.1,0.3-0.3,0.7-0.4,1c-2.4,6.6-4.7,13.2-7.1,19.8
		c-3.6,9.8-7.2,19.5-10.4,29.4c-0.5,1.6-1.2,3.2-1.9,4.7c-0.4,0.8-0.9,1.5-1.4,2.2c-0.3,0.4-0.8,0.7-1.2,1c-1.3,0.6-2.6-0.1-2.7-1.5
		c-0.1-1.1,0.1-2.1,0.4-3.1c1.4-5.2,3.2-10.3,5.1-15.4c3.3-8.9,6.6-17.8,9.8-26.7c1.5-4,2.9-8.1,4.3-12.1c0.1-0.2,0.1-0.4,0.2-0.6
		c-0.3-0.1-0.5-0.2-0.7-0.3c-2-0.7-3.9-1.4-5.9-2.2c-1.7-0.6-2.9-1.8-3.5-3.6c-0.3-0.8-0.6-1.7-0.9-2.5c-0.1-0.4-0.3-0.7-0.5-1.2
		c-0.4,0.2-0.6,0.4-0.9,0.6c-0.7,0.5-1.4,1-2.2,1.5c-1,0.7-2.1,0.8-3.3,0.4c-0.9-0.3-1.8-0.7-2.7-1.1c-3.2-1.5-6.4-3.1-9.5-5
		c-0.7-0.4-1.4-0.9-2-1.4c-1.3-1.1-1.6-2.4-1-4c0.4-1,0.9-1.9,1.7-2.6c1.1-0.9,2.2-1.8,3.4-2.6c4.2-2.6,8.8-4.2,13.6-5.3
		c3.3-0.7,6.6-1.3,10-1.5c2.6-0.2,5.2-0.1,7.7,0.2c2.7,0.4,5.4,0.8,8.1,1.3c0.2,0,0.4,0,0.6,0.1c0.3-0.7,0.6-1.4,0.9-2.1
		c0.6-1.2,1.1-2.3,1.7-3.4c0.4-0.6,0.8-1.3,1.4-1.8c1-1,2.4-0.5,2.7,0.8c0.2,0.8,0.1,1.5-0.1,2.2c-0.6,1.9-1.3,3.7-1.9,5.7
		c0.2,0.1,0.5,0.2,0.7,0.3c2.3,1,4.5,1.9,6.8,2.9c3.2,1.5,6.1,3.5,8.9,5.8c4,3.4,6.7,7.7,8.7,12.4c1.2,2.8,2.1,5.8,2.5,8.9
		c0.3,2.2,0.3,4.4-0.1,6.7c0,0.2-0.1,0.4-0.2,0.7c-0.7,2.5-2.3,3.6-4.9,3.2c-0.8-0.1-1.5-0.3-2.3-0.5c-3.9-1.1-7.7-2.4-11.5-4
		c-2.7-1.2-4.3-3.1-4.8-5.9C120.9,188.9,120.6,187.7,120.4,186.4z"/>
	<g>
		<path class="st23" d="M324.7,145.1c0.2-0.7,0.5-1.2,0.9-1.6c0.9-0.8,1.8-1.6,2.7-2.4c0.5-0.5,1.1-0.9,1.6-1.3
			c1.2-1.1,1.2-2.5-0.1-3.6c-0.6-0.5-1.3-0.9-2.1-1.1c-2.1-0.8-4.3-0.9-6.5-0.8c-4.7,0.2-8.8,2-12.5,4.8c-1.2,0.9-2.4,1.9-3.6,2.8
			c-0.1,0-0.1,0-0.2-0.1c-2.2-1.8-4.9-2.7-7.6-3.3c-0.8-0.2-1.6-0.3-2.4-0.4c-1.7-0.2-2.6,0.8-2.3,2.5c0.1,0.5,0.2,0.9,0.3,1.4
			c-0.9,0.1-1.8,0.2-2.7,0.3c-3.8,0.5-7.3,1.6-10.7,3.2c-2.7,1.3-5.3,2.7-7.6,4.4c-1.4,1-2.7,2.1-3.8,3.5c-0.4,0.5-0.7,1.1-1.1,1.7
			c-0.3,0.6-0.4,1.2,0.1,1.8c0.5,0.6,1.2,0.6,1.8,0.3c0.8-0.3,1.5-0.7,2.2-1.1c2-1.1,4.1-1.7,6.4-1.9c0.4,0,0.8,0,1.2,0
			c0,0.3,0.1,0.6,0.1,0.9c0.1,0.8,0.1,1.6,0.3,2.4c0.5,2,2,2.5,3.6,1.1c0.8-0.7,1.5-1.4,2.3-2.2c1.6-1.6,3.3-3,5.4-3.9
			c0.1-0.1,0.3-0.1,0.4-0.2c0,0,0,0,0.1,0.1c-0.1,0.1-0.2,0.2-0.3,0.3c-2.7,3.1-4.6,6.7-5.9,10.5c-0.3,0.8-0.6,1.6-0.8,2.5
			c-0.1,0.4-0.1,0.9-0.1,1.3c0.1,1.1,1.1,1.8,2.2,1.3c0.3-0.1,0.6-0.4,0.9-0.6c0.7-0.6,1.4-1.1,2.2-1.7c0.5-0.4,1-0.7,1.5-1
			c0.1,0.2,0.1,0.4,0.1,0.6c0.1,0.8,0.1,1.7,0.1,2.5c0.1,4,0.9,7.8,2.6,11.5c0.7,1.4,1.4,2.9,2.1,4.3c0.2,0.4,0.5,0.8,0.8,1.2
			c0.8,0.9,2,0.8,2.6-0.3c0.4-0.8,0.6-1.6,0.6-2.4c0.1-2.5,0.2-5,0.3-7.5c0.1-2.3,0.2-4.7,0.4-7c0.1-2,0.3-3.9,0.5-5.9
			c0.2-1.5,0.4-2.9,0.6-4.4c0-0.1,0.1-0.3,0.2-0.5c0.4,0.5,0.8,1,1.2,1.4c0.7,0.8,1.5,1,2.4,0.4c0.7-0.5,1.4-1,2-1.6
			c0.9-0.9,1.8-1,3-0.7c4.4,1.1,8,3.4,11,6.7c0.4,0.4,0.8,0.9,1.2,1.3c0.2,0.3,0.5,0.5,0.8,0.7c0.8,0.6,1.8,0.4,2.3-0.5
			c0.3-0.6,0.4-1.2,0.5-1.8c0.1-0.3,0.1-0.6,0.2-1c0.3,0.3,0.6,0.5,0.8,0.7c1.1,1.2,2.2,2.4,3.3,3.6c0.6,0.7,1.3,1.3,1.9,1.9
			c0.6,0.5,1.3,0.9,2.1,0.5c0.8-0.4,1-1.2,1-2c-0.1-1.1-0.2-2.3-0.5-3.4c-0.4-1.8-1-3.5-1.5-5.3c-0.1-0.3-0.2-0.6-0.3-0.9
			c0.9-0.2,1.7-0.1,2.5,0.2c1.2,0.5,2.4,1,3.6,1.5c1.4,0.7,2.7,1.5,4,2.2c0.7,0.4,1.5,0.7,2.2,0.8c1.8,0.3,3.1-1,2.7-2.8
			c-0.1-0.4-0.2-0.9-0.4-1.3c-0.3-0.7-0.7-1.4-1.1-2.1c-1.5-2.2-3.3-4-5.5-5.4c-3.4-2.2-7.1-3.6-11.2-4.1c-1.4-0.2-2.8-0.4-4.2-0.6
			C325.3,145.2,325.1,145.1,324.7,145.1z"/>
		<path class="st25" d="M331.8,223.1c0-4.9-0.4-9.8-1-14.7c-0.5-4.2-1-8.3-2-12.4c-1.4-6.1-3.4-12-5.7-17.8
			c-1.7-4.3-3.6-8.4-6.1-12.3c-0.9-1.4-1.8-2.7-2.8-3.9c-0.6-0.7-1.3-1.3-2-1.8c-1-0.7-2.2-0.9-3.4-0.4c-1.2,0.4-2.3,0.9-3.2,1.7
			c-1.3,1.1-1.6,2.3-1,3.8c0.3,0.7,0.7,1.3,1.1,2c1.2,1.9,2.5,3.8,3.7,5.7c2.7,4.3,4.9,8.7,6.6,13.4c1.3,3.5,2,7.1,2.5,10.8
			c0.4,2.5,0.7,5,0.9,7.5c0.2,2.1,0.2,4.2,0.2,6.3c0,1.9-0.1,3.8-0.3,5.7c-0.6,7.6-2,14.9-4.8,22c-0.4,1.1-0.8,2.3-1.2,3.4
			c-0.2,0.5-0.3,1-0.4,1.6c-0.2,1.5,0.5,2.6,2,2.9c0.6,0.1,1.3,0.2,1.9,0.2c2.7,0.1,5.3,0,8-0.5c0.5-0.1,1-0.3,1.5-0.4
			c1.5-0.6,2.6-1.6,3.3-3.2c0.7-1.6,1.1-3.4,1.3-5.1c0.5-2.9,0.7-5.9,0.8-8.9C331.6,226.8,331.7,224.9,331.8,223.1z"/>
	</g>
	<g>
		<path class="st0" d="M234.4,154.5c-0.5-2.9-1.4-5.7-2.9-8.3c-3.3-5.6-8.4-7.6-14.6-7.6c-0.9,0-1.9,0.2-2.8,0.3
			c-2.1,0.1-4.1,0.6-6,1.5c-5.5,2.6-9,7-11,12.7c-0.2,0.5-0.3,1.1-0.3,1.7c-0.1,1.3,0.5,2.3,1.6,2.9c0.6,0.3,1.2,0.5,1.8,0.7
			c2.2,0.6,4.5,0.9,6.8,1.1c3.4-0.1,6.8-0.1,10.2-0.2c4.4-0.2,8.9-0.5,13.3-0.7c0.8,0,1.6-0.2,2.3-0.4c1-0.4,1.6-1.2,1.7-2.3
			C234.5,155.4,234.5,154.9,234.4,154.5z"/>
		<path class="st0" d="M217.8,128.8c0,1.2,0,2.4,0,3.6c0,0.2,0,0.3-0.1,0.5c-0.1,0.7-0.6,1.1-1.1,1.1c-0.6,0-1-0.3-1.2-1
			c-0.2-0.9-0.4-1.7-0.4-2.6c-0.2-3.7-0.5-7.3-0.7-11c-0.2-3.4-0.3-6.8-0.4-10.2c0-0.8,0-1.6,0.2-2.3c0.1-0.8,0.6-1.1,1.2-1.1
			c0.7,0,1,0.4,1.2,1c0.2,0.6,0.3,1.1,0.3,1.7c0.1,1.8,0.2,3.6,0.3,5.4c0.2,4,0.3,8,0.5,12.1C217.7,126.9,217.7,127.9,217.8,128.8
			C217.7,128.8,217.7,128.8,217.8,128.8z"/>
		<path class="st0" d="M232.8,137.6c0.1-0.2,0.2-0.6,0.4-1c0.5-0.7,1-1.5,1.6-2.1c3.8-4.3,7.9-8.4,12-12.5c0.6-0.5,1.2-1,1.8-1.5
			c0.1-0.1,0.2-0.1,0.2-0.2c0.6-0.4,1.1-0.4,1.6,0c0.5,0.4,0.6,1,0.2,1.6c-0.6,0.9-1.2,1.8-2,2.5c-1.6,1.7-3.2,3.2-4.8,4.9
			c-2.1,2.2-4.2,4.4-6.3,6.6c-0.8,0.8-1.6,1.6-2.4,2.3c-0.3,0.2-0.6,0.4-0.9,0.5C233.4,139.1,232.7,138.6,232.8,137.6z"/>
		<path class="st0" d="M184.3,122.7c0.2,0.1,0.5,0.2,0.9,0.4c0.4,0.3,0.8,0.6,1.2,0.9c4.6,3.9,9.3,7.8,13.9,11.7
			c0.5,0.5,1,1,1.4,1.6c0.4,0.6,0.4,1.1,0,1.4c-0.4,0.4-0.9,0.3-1.4,0.1c-0.3-0.2-0.7-0.4-1-0.6c-4.7-4-9.5-8-14.2-12.1
			c-0.6-0.6-1.3-1.1-1.9-1.7c-0.3-0.3-0.4-0.7-0.2-1.1C183.3,122.9,183.7,122.7,184.3,122.7z"/>
		<path class="st0" d="M241.1,155.9c-1,0-1.7-0.5-1.8-1.3c-0.1-0.7,0.4-1.4,1.3-1.6c1.3-0.3,2.6-0.4,3.9-0.6c4-0.6,8-1.1,11.9-1.6
			c0.4-0.1,0.8-0.1,1.2,0c0.6,0.1,1,0.6,1.1,1.2c0.1,0.6-0.2,1.1-0.7,1.4c-0.3,0.2-0.7,0.3-1,0.4c-3.1,0.5-6.1,0.9-9.2,1.3
			c-1.9,0.3-3.9,0.5-5.8,0.7C241.6,155.9,241.3,155.9,241.1,155.9z"/>
		<path class="st0" d="M191.3,152.8c1,0.3,1.5,0.9,1.4,1.7c-0.1,0.7-0.8,1.3-1.6,1.2c-1.3-0.1-2.6-0.3-3.9-0.4c-4-0.5-8-1-12-1.5
			c-0.4,0-0.8-0.1-1.1-0.3c-0.6-0.3-0.8-0.8-0.8-1.5c0.1-0.6,0.5-1,1-1.2c0.3-0.1,0.7-0.1,1.1-0.1c3.1,0.3,6.2,0.7,9.3,1
			c1.9,0.2,3.9,0.5,5.8,0.8C190.8,152.8,191.1,152.8,191.3,152.8z"/>
		<path class="st0" d="M209.6,132.9c0,1.1-0.8,1.7-1.5,1.2c-0.4-0.3-0.8-0.6-1.1-1.1c-1-1.3-1.9-2.7-2.8-4c-1-1.4-1.9-2.9-2.8-4.4
			c-0.3-0.6-0.6-1.3-0.7-1.9c-0.2-0.6,0-1.1,0.5-1.4c0.5-0.3,0.9-0.2,1.4,0.2c0.4,0.4,0.8,0.8,1.1,1.2c1.8,2.9,3.6,5.8,5.3,8.7
			C209.3,132,209.5,132.6,209.6,132.9z"/>
		<path class="st0" d="M224.9,131.7c0.3-1.5,0.6-3.1,1-4.6c0.4-1.7,0.8-3.4,1.2-5.2c0.1-0.5,0.3-0.9,0.6-1.4
			c0.3-0.6,0.9-0.8,1.4-0.6c0.5,0.1,0.9,0.6,0.9,1.3c0,0.3,0,0.7-0.1,1c-0.8,3-1.6,6.1-2.4,9.1c-0.1,0.4-0.2,0.8-0.4,1.1
			c-0.3,0.6-0.7,0.9-1.2,0.8c-0.5-0.1-0.8-0.5-0.8-1.3C225,131.8,225,131.8,224.9,131.7C225,131.7,225,131.7,224.9,131.7z"/>
		<path class="st0" d="M185.7,140.2c0.3,0.1,0.7,0.2,1,0.4c2.7,1.3,5.5,2.5,8.2,3.8c0.5,0.2,0.9,0.5,1.3,0.9
			c0.4,0.3,0.5,0.8,0.3,1.2c-0.2,0.4-0.7,0.7-1.2,0.6c-0.5-0.1-1.1-0.2-1.6-0.4c-2.5-1.1-5.1-2.3-7.6-3.5c-0.5-0.2-1-0.6-1.4-1
			c-0.3-0.3-0.4-0.7-0.2-1.2C184.8,140.4,185.1,140.3,185.7,140.2z"/>
		<path class="st0" d="M249.5,140.2c-0.3,0.1-0.7,0.2-1,0.4c-2.7,1.3-5.5,2.5-8.2,3.8c-0.5,0.2-0.9,0.5-1.3,0.9
			c-0.4,0.3-0.5,0.8-0.3,1.2c0.2,0.4,0.7,0.7,1.2,0.6c0.5-0.1,1.1-0.2,1.6-0.4c2.5-1.1,5.1-2.3,7.6-3.5c0.5-0.2,1-0.6,1.4-1
			c0.3-0.3,0.4-0.7,0.2-1.2C250.4,140.4,250.1,140.3,249.5,140.2z"/>
	</g>
	<g>
		<path class="st0" d="M133.1,270.1c0.1-0.5,0.2-0.9,0.3-1.2c0.1-0.4,0.2-0.8,0.3-1.2c0.5-1.9,1.8-3,3.6-3.3
			c0.8-0.1,1.6-0.3,2.3-0.2c1.9,0.2,3.2,1.6,3.4,3.7c0.2,1.5-0.1,2.9-0.3,4.4c-0.4,2.5-0.8,4.9-1.1,7.4c-0.6,4.9-0.8,9.8-0.6,14.7
			c0.2,3.6,0.4,7.3,1.2,10.8c0.6,2.9,1.6,5.7,3.1,8.3c0.2,0.4,0.6,0.8,1,1.3c0.5-0.7,0.9-1.3,1.2-1.9c1.2-2.3,2.1-4.7,2.6-7.2
			c0.8-3.8,1.5-7.6,2.2-11.4c0.4-2.2,0.9-4.4,1.3-6.6c0.1-0.6,0.1-1.2,0-1.8c-0.9-6-0.7-11.9,1.1-17.7c0.7-2.3,1.8-4.4,3.3-6.3
			c2.1-2.6,4.8-3.9,8.1-4.1c1.1,0,2.2,0.1,3.2,0.4c3.4,1.2,6.1,3.3,7.8,6.5c0.3,0.5,0.5,1,0.6,1.5c0.1,0.4,0.1,0.8,0.2,1.3
			c0,0.4-0.1,0.9-0.6,1c-0.5,0.2-0.8-0.1-1.1-0.4c-0.2-0.2-0.3-0.4-0.5-0.5c-1-1-1.9-2-3-2.8c-0.7-0.6-1.6-1-2.5-1.3
			c-0.9-0.4-1.8-0.2-2.6,0.5c-1.2,1-2,2.2-2.7,3.6c-0.9,1.7-1.3,3.6-1.6,5.4c-0.5,3.7-0.3,7.4,0.4,11c0.3,1.4,0.8,2.7,1.5,3.9
			c1.1,2,2.4,2.4,4.5,1.5c0.7-0.3,1.3-0.6,1.9-1.1c2-1.5,4-3,6-4.6c0.3-0.2,0.6-0.5,0.8-0.8c0.7-0.8,1.2-1.6,1.3-2.7
			c0.5-3.5,1.5-6.8,3.3-9.8c0.7-1.3,1.6-2.6,2.6-3.7c4.2-4.6,9.9-5.3,15.2-2.5c1.4,0.7,2.6,1.7,4,2.6c0.1-0.2,0.2-0.5,0.3-0.7
			c0.5-1.7,1.6-2.7,3.3-3.1c0.7-0.2,1.3-0.3,2-0.4c2.6-0.5,4.6,1.1,4.6,3.7c0,1.4-0.2,2.8-0.5,4.2c-0.9,4.5-1.7,9-2.2,13.6
			c-0.4,4.1-0.7,8.2-0.5,12.3c0.2,3.2,0.7,6.3,1.9,9.2c0.4,1,1,2,1.6,2.9c1.1,1.5,2.6,1.7,4,0.5c1-0.9,1.9-1.9,2.7-2.9
			c2-2.7,3.4-5.7,4.6-8.7c1.4-3.6,2.8-7.1,4.1-10.7c0.1-0.2,0.1-0.4,0.2-0.5c0.3-0.6,0.3-1.1,0.2-1.8c-0.8-4.9-1-9.8-1-14.8
			c0-5.6,0.4-11.1,0.9-16.7c0.3-2.6,0.5-5.3,0.8-7.9c0-0.1,0-0.1-0.1-0.3c-0.3,0.1-0.6,0.1-0.9,0.2c-6.6,1.7-13.1,3.5-19.7,5.2
			c-5.1,1.3-10.3,2.2-15.5,2.9c-3.4,0.5-6.8,0.9-10.2,1.1c-6.2,0.4-12.4,0.2-18.5-1.3c-3.2-0.8-6.3-1.9-9.1-3.6
			c-3.7-2.3-6.5-5.2-8.1-9.3c-1-2.5-1.3-5.1-0.5-7.7c0.5-1.8,1.7-3.2,3.2-4.4c0.8-0.6,1.7-0.5,2.3,0.2c0.6,0.6,0.7,1.5,0.1,2.2
			c-2,2.4-1.6,5-0.6,7.6c0.6,1.7,1.7,3.1,3.1,4.4c2.2,2.1,4.9,3.4,7.7,4.4c3.5,1.2,7.1,1.8,10.9,2c5.7,0.3,11.3-0.2,16.8-0.9
			c10.8-1.4,21.3-4.1,31.7-6.9c2.5-0.7,5-1.4,7.6-2.1c0.2-0.1,0.4-0.1,0.6-0.2c0.2-1,0.3-2,0.6-3.1c0.6-2.2,1.2-4.4,1.9-6.5
			c1-3,3.8-3.7,5.9-3.4c1.4,0.2,2.2,1.1,2.5,2.5c0.2,0.9,0.2,1.8,0.1,2.7c-0.1,1.6-0.2,3.1-0.4,4.8c0.3,0,0.5,0,0.8-0.1
			c4.7-1.1,9.5-1.9,14.4-2.1c3.3-0.1,6.5,0.2,9.6,1.2c2.1,0.7,4,1.9,5.7,3.4c0.7,0.6,1.3,1.4,1.6,2.3c0.1,0.4,0.2,0.8-0.2,1.2
			c-0.4,0.3-0.8,0.3-1.2,0.1c-0.2-0.1-0.5-0.2-0.7-0.4c-3.9-2.5-8.1-3.5-12.7-3.1c-4.7,0.3-9.3,1.1-13.8,2.3
			c-1.1,0.3-2.1,0.6-3.2,0.9c-0.6,0.1-0.8,0.4-0.8,1c-0.2,3.8-0.4,7.5-0.6,11.3c-0.3,5.2-0.3,10.5-0.1,15.7c0.2,6.4,0.7,12.7,2.3,19
			c0.6,2.5,1.5,4.8,2.8,7c0.4,0.7,1,1.3,1.6,1.9c0.7,0.7,1.6,0.8,2.5,0.4c0.4-0.2,0.9-0.5,1.2-0.8c1.1-0.9,2-2,2.8-3.1
			c2.6-3.8,4.3-8,5.4-12.4c1.1-4,1.5-8.2,2-12.3c0.2-1.9,0.3-3.7,0.6-5.6c0.4-2.9,1.7-4.3,4.5-4.9c3.1-0.7,5.1,0.7,5.5,3.8
			c0.2,1.3,0.2,2.7,0.2,4c-0.1,2.5-0.2,5-0.4,7.5c-0.3,5.1-0.4,10.3-0.3,15.4c0.1,3.8,0.3,7.6,1.1,11.3c0.3,1.2,0.7,2.4,1.2,3.5
			c0.3,0.7,0.5,0.9,1.2,1.3c0.6-0.2,1-0.7,1.3-1.2c0.6-0.9,1.1-1.8,1.6-2.7c1.7-3.5,3.4-7,5.1-10.5c0.2-0.5,0.4-1,0.7-1.4
			c0.6-0.9,0.6-1.8,0.5-2.8c-0.5-3.8-0.3-7.6,0.1-11.5c0.1-0.5,0.1-1,0.2-1.5c-0.1-0.1-0.2-0.2-0.3-0.2c-4.3-2.2-6.9-5.8-8.3-10.3
			c-1.2-4-1.6-8-0.5-12.1c1-3.8,3-7,6.3-9.2c4.2-2.7,8.6-2.9,13-0.6c3.2,1.6,5.6,4,7.6,7c2.9,4.3,4.9,9,6.1,14.1
			c0.2,0.7,0.3,1.3,0.5,2.1c0.3-0.1,0.5-0.2,0.7-0.3c1.8-1,3.6-2,5.4-3c1.1-0.6,2.2-1.1,3.4-1.6c1-0.4,2-0.5,3.1-0.4
			c2.4,0.3,4.1,1.6,4.8,3.9c0.4,1.4,0.5,2.8,0.8,4.2c0.1,0.4,0.1,0.7,0.1,1.1c0.1,0,0.1,0,0.2,0c0.1-0.5,0.2-0.9,0.3-1.4
			c0.6-3.3,1.4-6.6,2.6-9.8c0.8-2.2,1.9-4.2,3.3-6c1.3-1.7,2.9-3,5.1-3.5c3-0.7,5.7,0.2,8,2.1c1.7,1.4,2.7,3.2,3.5,5.2
			c1,2.5,1.5,5.2,1.9,7.9c0.7,4.5,0.9,9.1,1.1,13.7c0.1,5.4,0.3,10.8,0.4,16.2c0,1.8,0.2,3.5,0.3,5.4c0.7,0,1.3-0.1,1.9-0.1
			c4.3-0.3,8.4,0.3,12.4,2.1c3.3,1.5,6,3.8,7.6,7.2c2.6,5.4,0.2,12.5-5.1,15.2c-5.6,2.9-11,2.5-16.1-1.1c-3-2.1-5-5.1-6.3-8.4
			c-1-2.4-1.6-4.9-2.1-7.4c0-0.2-0.1-0.3-0.1-0.6c-0.4,0.1-0.8,0.2-1.1,0.3c-4.4,1.2-8.6,3-12.8,4.7c-5,2.1-9.8,4.3-14.8,6.2
			c-8.5,3.3-17.2,5.7-26.2,7.3c-4.7,0.8-9.5,1.6-14.3,2.1c-5.2,0.5-10.4,0.9-15.7,0.5c-8.3-0.6-16.1-3-23.2-7.4
			c-2.7-1.7-5-3.8-7.2-6.1c-0.3-0.4-0.6-0.9-0.8-1.3c-0.3-0.8-0.1-1.6,0.5-2.2c0.6-0.6,1.4-0.9,2.3-0.5c0.6,0.2,1.2,0.6,1.6,1
			c1.8,1.6,3.6,3.3,5.7,4.6c6.2,3.9,12.9,6.3,20.2,6.8c4.3,0.3,8.6,0.2,13-0.2c5.8-0.5,11.6-1.3,17.4-2.4c11.2-2,22-5.3,32.4-9.9
			c4.9-2.2,9.8-4.2,14.7-6.3c2.1-0.8,4.3-1.4,6.4-2.1c0.4-0.1,0.7-0.2,1.2-0.3c-0.1-1.3-0.2-2.5-0.2-3.8c-0.1-2.7-0.2-5.4-0.3-8.1
			c-0.1-4.3-0.2-8.6-0.3-12.9c-0.2-4.9-0.5-9.8-1.5-14.5c-0.3-1.6-0.9-3.2-1.4-4.8c-0.2-0.6-0.5-1.1-0.8-1.6c-0.8-1.1-2-1.2-3.1-0.5
			c-1.5,1-2.6,2.5-3.4,4.1c-1.2,2.5-1.8,5.1-2.3,7.8c-0.7,3.7-0.9,7.5-1,11.2c-0.1,4.2-0.2,8.3-0.4,12.5c-0.1,2.6-0.1,5.2-0.3,7.9
			c0,0.9-0.3,1.9-0.5,2.8c-0.4,1.3-1.3,2.1-2.6,2.4c-2.1,0.5-4.2-0.3-5.4-2.2c-0.8-1.3-1.2-2.8-1.5-4.3c-0.5-3.1-1-6.3-1.4-9.4
			c-0.6-4.9-1.1-9.8-1.6-14.7c-0.1-0.9-0.3-1.8-0.6-2.7c-0.3-1-0.9-1.4-1.9-1.3c-0.7,0.1-1.4,0.2-2.1,0.5c-1,0.4-1.9,0.9-2.9,1.4
			c0,0.8,0.1,1.6,0.1,2.5c0.3,4.5,0.1,9-0.9,13.4c-0.5,2.2-1.2,4.4-1.9,6.5c-0.7,1.9-1.7,3.7-3.1,5.2c-2,2.3-4.4,3.7-7.5,3.8
			c-3.1,0.1-5.7-1.1-7.8-3.3c-0.8-0.9-1.4-1.9-2.1-2.8c-0.1-0.2-0.3-0.4-0.5-0.8c-0.1,0.4-0.2,0.6-0.4,0.9
			c-1.4,3.4-2.7,6.8-4.1,10.2c-0.6,1.3-1.4,2.5-2.1,3.7c-0.7,1.1-1.7,2-2.8,2.7c-2.1,1.3-4.3,1.3-6.4,0c-1-0.6-1.9-1.4-2.6-2.4
			c-1.4-1.8-2.4-3.9-3.2-6.1c-1.1-3-1.6-6.2-1.9-9.4c-0.2-1.7-0.3-3.5-0.6-5.3c-0.1,0.3-0.2,0.5-0.3,0.8c-1.3,3.4-2.8,6.6-4.8,9.7
			c-1,1.5-2,2.9-3.3,4.1c-2.3,2.1-5,3.4-8.2,3c-3.3-0.3-6-1.8-8.2-4.3c-2.1-2.4-3.5-5.2-4.6-8.3c-0.3-0.9-0.6-1.9-1-3
			c-0.2,0.6-0.4,0.9-0.5,1.3c-1.6,4.5-3.3,8.9-5.5,13.1c-1,2-2.1,3.9-3.5,5.6c-0.7,0.9-1.5,1.7-2.4,2.4c-2.4,1.8-4.9,1.9-7.6,0.5
			c-1.6-0.8-2.8-2.1-3.8-3.6c-1.5-2.2-2.4-4.6-3.2-7.2c-1.2-4.3-1.6-8.7-1.7-13.2c0-1.2,0-2.3-0.1-3.5c-0.1,0.3-0.2,0.6-0.3,0.9
			c-0.9,2.5-1.7,5.1-3,7.5c-0.9,1.6-1.9,3.2-3,4.7c-0.8,1.2-2,2.2-3.2,3c-3.4,2.1-7.4,1.8-10.5-0.9c-1.6-1.4-2.6-3.2-3.4-5.1
			c-0.9-2.3-1.4-4.6-1.6-7.1c0-0.4-0.1-0.9-0.3-1.4c-0.2,0.3-0.4,0.5-0.6,0.8c-1.9,2.8-4,5.5-6.4,7.8c-0.8,0.8-1.7,1.5-2.6,2.1
			c-3.2,2.2-7.6,1.9-10.5-0.6c-1.1-0.9-1.9-2-2.7-3.2c-0.2-0.3-0.3-0.6-0.6-1c-0.1,0.3-0.2,0.4-0.2,0.6c-0.8,4.1-1.7,8.3-2.5,12.4
			c-0.6,3-1.7,5.8-2.8,8.6c-0.3,0.9-0.8,1.7-1.4,2.5c-1.6,2.1-4,2.4-6.2,0.9c-1.1-0.8-2-1.9-2.8-3c-1.9-2.8-3.1-6-4-9.3
			c-1.2-4.4-1.7-8.8-2-13.3c-0.2-3.2-0.2-6.5,0-9.7c0-0.1,0-0.3-0.1-0.4c-0.1,0.3-0.2,0.6-0.3,0.9c-1,3-2.1,6-3.6,8.8
			c-0.7,1.3-1.5,2.6-2.4,3.8c-1,1.4-2.4,2.5-4,3.2c-1.5,0.6-3,0.8-4.5,0.4c-3-0.7-5.2-2.5-6.7-5.2c-1.3-2.4-2-4.9-2.4-7.5
			c-0.5-3.3-0.5-6.5-0.1-9.9c-2.1-0.4-4.1-1.1-5.9-2.2c-1.8-1.1-3.4-2.4-4.9-4.1c-0.1,0.4-0.2,0.6-0.3,0.8
			c-0.8,4.1-1.6,8.2-2.3,12.3c-1,5.6-2.4,11.1-4.3,16.5c-0.5,1.4-1.1,2.7-1.9,4c-0.4,0.8-1,1.5-1.7,2.1c-1.6,1.4-3.4,1.6-5.4,0.8
			c-1.4-0.6-2.5-1.7-3.3-3c-1.3-2-2.1-4.2-2.6-6.5c-0.8-3.6-1.5-7.3-2.2-11c-1.1-5.7-2.2-11.3-3.3-17c-0.1-0.7-0.4-1.4-0.5-1.9
			c-1.6-0.2-3.1-0.3-4.6-0.6c-2.9-0.5-5.6-1.8-8.2-3.3c-2.3-1.3-3.5-3.5-4.1-6c-0.5-2.1,0.2-4.1,1.5-5.8c2.8-3.6,8.9-5.6,13.8-2.5
			c2.1,1.3,3.8,3,5.2,5c1.3,1.9,2.3,4,3.2,6.2c0.1,0.4,0.3,0.7,0.5,1.2c0.6-0.1,1.1-0.2,1.6-0.3c4-1,7.9-2.5,11.7-3.9
			c6-2.3,12-4.7,18-6.8c5.1-1.9,10.4-3.3,15.8-4.2c4.3-0.7,8.5-1,12.8-0.3c1.8,0.3,3.5,0.8,5.1,1.5c1.9,0.9,3.5,2.2,4.7,3.9
			c0.3,0.4,0.5,1,0.7,1.5c0.2,0.8-0.1,1.5-0.6,1.8c-0.7,0.4-1.3,0.1-1.8-0.3c-0.8-0.8-1.8-1.4-2.8-1.9c-2.6-1.2-5.3-1.8-8.1-1.7
			c-4.6,0.2-9,1.1-13.5,2c-8,1.7-15.6,4.3-23.2,7.4c-6,2.5-12.1,4.5-18.4,5.9c-0.2,0-0.3,0.1-0.5,0.2c0.3,1.1,0.5,2.1,0.7,3.1
			c0.9,4.5,1.7,8.9,2.6,13.4c0.8,4,1.6,8.1,2.4,12.1c0.2,1,0.6,2,1,3.3c0.4-0.7,0.7-1.2,1-1.7c1.3-2.4,2.2-5,2.9-7.7
			c1.6-6.3,3.2-12.6,4.7-18.9c0.3-1,0.5-2,0.8-3c0.1-0.3,0.2-0.7,0.4-1c0.6-1.2,2-1.7,3.2-1c0.6,0.3,1,0.8,1.5,1.2
			c1.1,1.1,2.1,2.3,3.3,3.4c1.6,1.5,3.4,2.6,5.5,3.3c0.1,0,0.3,0.1,0.4,0.1c0.1,0,0.1,0,0.3,0c0.1-0.4,0.2-0.7,0.4-1.1
			c0.6-2,1.4-3.8,2.6-5.5c1.6-2.2,3.6-3.6,6.3-4c1.9-0.3,3.8,0.1,5.6,0.8c2.9,1.2,5.1,3.2,7,5.7
			C132.5,269.4,132.8,269.7,133.1,270.1z M306.3,266.3c0-0.3,0-0.4,0-0.5c-0.5-2.8-1.1-5.6-2.1-8.3c-1.2-3.3-2.6-6.4-4.7-9.1
			c-1.1-1.5-2.4-2.8-4-3.7c-3.9-2.2-7.8-0.9-9.5,3.2c0,0.1-0.1,0.2-0.1,0.3c-1.4,4.2-1.5,8.5-0.1,12.7c0.4,1.2,1.1,2.4,2.1,3.4
			c0.4-0.6,0.7-1.1,1-1.6c1.4-2.2,3-2.8,5.6-2.3c3,0.6,4.7,2.9,4.2,5.9c-0.1,0.5-0.2,1.1-0.2,1.7
			C301.1,267.9,303.7,267.2,306.3,266.3z M188.1,285.6c0,2.6,0.3,4.8,1,6.7c0.5,1.3,1.2,2.5,2.2,3.6c0.4,0.5,1,0.6,1.6,0.5
			c0.8-0.2,1.4-0.6,1.9-1.1c1.3-1.1,2.3-2.5,3-4c1-2,1.9-4,2.7-6.1c1.7-4.4,2.7-9.1,3.6-13.8c0.1-0.4,0-0.7-0.4-1
			c-1.4-1.2-3-2.1-4.7-2.5c-2.3-0.6-4.4,0.2-5.7,2.2c-0.4,0.6-0.9,1.3-1.3,2C189.5,276.3,188.2,280.8,188.1,285.6z M124,267.8
			c-1.2-0.1-2,0.4-2.6,1.4c-3.1,5.8-3.9,11.9-2.4,18.2c0.4,1.9,1.3,3.5,2.5,5.1c0.7,1,1.3,1.1,2.3,0.4c0.7-0.5,1.3-1,1.8-1.7
			c0.8-1.1,1.6-2.3,2.2-3.5c2.1-4.3,3.5-8.9,4.5-13.6c0.1-0.4,0-0.7-0.3-1.1c-1-1-1.9-2.1-2.9-3c-0.6-0.6-1.4-1.1-2.1-1.5
			C126,268.1,125,267.9,124,267.8z M355.7,303.4c0.3,1.4,0.6,2.6,0.9,3.8c0.7,2.6,1.7,5.1,3.2,7.4c1.9,3,4.6,4.6,8.3,4.4
			c1.2-0.1,2.3-0.5,3.2-1.4c2.8-2.8,3-7.2,0.2-10.1c-1.3-1.3-2.8-2.2-4.5-2.9c-2.9-1.1-5.9-1.4-9-1.3
			C357.3,303.3,356.6,303.4,355.7,303.4z M296.8,274.7c-0.1,0.2-0.1,0.3-0.1,0.4c-0.4,2.3-0.7,4.6-1,7c-0.3,2.4-0.2,4.7,0.5,7
			c0.3,0.9,0.7,1.8,1.2,2.6c0.8,1.2,2,1.6,3.3,0.9c0.8-0.4,1.5-0.9,2.1-1.5c1.1-1.1,1.9-2.4,2.4-3.9c1-2.8,1.5-5.8,1.5-8.8
			c0-2.2-0.1-4.4-0.2-6.6c0-0.1-0.1-0.2-0.1-0.4C303.2,272.9,300.1,274.2,296.8,274.7z M68.8,262.6c0-0.1,0.1-0.1,0.1-0.2
			c-0.5-1.2-1.1-2.3-1.9-3.3c-1.1-1.5-2.5-2.7-4.3-3.5c-1.2-0.5-2.4-0.4-3.5,0.3c-0.7,0.5-0.9,0.9-0.7,1.8c0.2,1,0.9,1.6,1.7,2.1
			c1.8,1.1,3.7,1.9,5.8,2.4C67,262.3,67.9,262.4,68.8,262.6z"/>
		<path class="st0" d="M271.6,249.9c0,2.5-2.1,4.4-4.6,4.4c-2.5,0-4.4-2-4.3-4.4c0-2.4,2.2-4.4,4.6-4.4
			C269.7,245.5,271.6,247.5,271.6,249.9z"/>
	</g>
	<g>
		<path class="st19" d="M161.5,177.6c-0.3,9.4-0.2,18.7,0,28.1c0,1.8,0.2,3.6,0.4,5.4c0,0.3,0.1,0.5,0.1,0.8c0,1.1-0.7,1.9-1.6,2
			c-1,0.1-2-0.6-2.1-1.7c-0.1-0.9-0.2-1.8-0.3-2.7c-0.3-4.4-0.3-8.9-0.3-13.3c-0.1-6.6-0.1-13.3,0.1-19.9c0-0.2,0-0.3,0-0.5
			c0.1-1.1,0.8-1.8,1.8-1.9c0.9-0.1,1.6,0.5,1.9,1.6C161.6,176.1,161.5,176.9,161.5,177.6z"/>
		<g>
			<path class="st19" d="M180.6,188.3c0.2,2.1,0.4,4.1,0.6,6.1c0.5,5.8,1.7,11.4,2.4,17.2c0,0.3,0.1,0.7,0.1,1
				c-0.1,1-0.7,1.8-1.7,1.9c-0.8,0.1-1.6-0.5-1.9-1.4c-0.3-0.9-0.3-1.9-0.4-2.8c-0.5-3.3-1-6.7-1.5-10c-0.5-3.5-0.8-7-1.2-10.5
				c-0.2-2.4-0.4-4.7-0.6-7.1c-0.1-0.9-0.1-1.7,0-2.6c0.1-0.9,0.6-1.5,1.4-1.8c0.9-0.3,1.6,0,2.2,0.6c0.6,0.5,0.9,1.2,1.3,1.9
				c2.9,5.5,5.4,11.2,7.6,17c0.8,2.1,1.6,4.2,2.4,6.3c0.4-0.2,0.3-0.5,0.3-0.8c0.2-4.9,0.4-9.7,0.6-14.6c0.1-1.7,0.2-3.4,0.3-5
				c0-0.3,0.1-0.7,0.2-1c0.3-1,1-1.5,2-1.4c0.9,0.1,1.5,0.8,1.6,1.7c0,0.5,0,0.9,0,1.4c-0.2,4.4-0.5,8.7-0.7,13.1
				c-0.2,3.8-0.3,7.7-0.6,11.5c-0.1,0.9-0.2,1.9-0.5,2.8c-0.3,0.9-0.9,1.6-1.9,1.7c-1.1,0.1-1.8-0.5-2.3-1.4
				c-0.7-1.3-1.2-2.8-1.7-4.2c-2.4-6.1-4.5-12.3-7.2-18.3C181.2,189,181.1,188.5,180.6,188.3z"/>
			<path class="st19" d="M201.7,205.9c0,1.6,0.4,3.1,0.6,4.5c0.1,0.5,0.5,0.7,1,0.6c1.1-0.1,2.2-0.1,3.2-0.5c1.2-0.5,2.4,0,2.7,1.1
				c0.3,1.1-0.2,2.1-1.5,2.5c-2,0.6-4.1,0.7-6.2,0.4c-1.4-0.2-2.3-1.1-2.7-2.5c-0.5-1.9-0.8-3.8-1-5.7c-0.7-7.7-0.6-15.4-0.4-23.1
				c0.1-2.4,0.2-4.7,0.4-7.1c0-0.5,0.1-1,0.2-1.5c0.2-0.9,0.8-1.4,1.6-1.7c0.6-0.2,1.2-0.2,1.8-0.2c2.4,0.1,4.8,0.3,7.2,0.8
				c1.2,0.2,1.9,1.1,1.7,2.2c-0.2,1-1.2,1.7-2.4,1.5c-1.7-0.3-3.5-0.6-5.3-0.6c-1.1,0-1.2,0-1.2,1.1c-0.1,1.8-0.2,3.5-0.3,5.3
				c-0.1,5.9-0.2,11.7,0,17.6c0,1.6-0.1,1.6,1.6,1.5c0.6,0,1.3,0,1.9,0c1.2,0.1,2.1,0.9,2,1.9c0,1.1-0.8,1.8-2.1,1.9
				C203.7,206,202.8,205.9,201.7,205.9z"/>
			<path class="st19" d="M215.7,205.9c0,1.6,0.4,3.1,0.6,4.5c0.1,0.5,0.5,0.7,1,0.6c1.1-0.1,2.2-0.1,3.2-0.5c1.2-0.5,2.4,0,2.7,1.1
				c0.3,1.1-0.2,2.1-1.5,2.5c-2,0.6-4.1,0.7-6.2,0.4c-1.4-0.2-2.3-1.1-2.7-2.5c-0.5-1.9-0.8-3.8-1-5.7c-0.7-7.7-0.6-15.4-0.4-23.1
				c0.1-2.4,0.2-4.7,0.4-7.1c0-0.5,0.1-1,0.2-1.5c0.2-0.9,0.8-1.4,1.6-1.7c0.6-0.2,1.2-0.2,1.8-0.2c2.4,0.1,4.8,0.3,7.2,0.8
				c1.2,0.2,1.9,1.1,1.7,2.2c-0.2,1-1.2,1.7-2.4,1.5c-1.7-0.3-3.5-0.6-5.3-0.6c-1.1,0-1.2,0-1.2,1.1c-0.1,1.8-0.2,3.5-0.3,5.3
				c-0.1,5.9-0.2,11.7,0,17.6c0,1.6-0.1,1.6,1.6,1.5c0.6,0,1.3,0,1.9,0c1.2,0.1,2.1,0.9,2,1.9c0,1.1-0.8,1.8-2.1,1.9
				C217.7,206,216.8,205.9,215.7,205.9z"/>
			<path class="st19" d="M242.8,194.3c-0.1,7.5-3.2,13.5-9,18.1c-0.5,0.4-1,0.7-1.4,1.1c-0.7,0.6-1.4,0.8-2.3,0.8
				c-1.2,0-2.1-0.8-2.2-2c-0.6-7.3-1.3-14.5-1.8-21.8c-0.3-4-0.5-8.1-0.7-12.1c0-0.6,0-1.1,0.3-1.6c0.3-0.8,0.9-1.2,1.7-1.3
				c1-0.1,1.9,0,2.8,0.2c6.7,1.9,10.6,6.5,12.1,13.2C242.6,190.6,242.8,192.4,242.8,194.3z M231.4,209.2c0.5-0.1,0.7-0.3,0.9-0.4
				c4.3-3.7,6.5-8.3,6.7-13.9c0.1-3-0.4-5.9-1.6-8.7c-1.5-3.4-4.1-5.5-7.5-6.7c-0.7-0.3-0.8-0.2-0.8,0.6c0,0.7,0.1,1.4,0.1,2.1
				c0.2,3.4,0.4,6.7,0.7,10.1c0.3,3.5,0.6,7,0.9,10.4C231,204.7,231.2,206.9,231.4,209.2z"/>
		</g>
		<path class="st19" d="M274.4,215.6c0,1.1-0.4,1.7-1.2,2c-0.7,0.3-1.5,0.1-2.1-0.5c-0.4-0.5-0.7-1-0.7-1.6c-0.3-3-1-5.9-1.4-8.8
			c-0.1-0.6-0.2-0.8-0.9-0.8c-2,0.2-3.9,0.4-5.9,0.6c-0.6,0.1-0.7,0.5-0.7,0.9c-0.1,1-0.2,2-0.3,3c-0.1,1.1-0.2,2.2-0.3,3.3
			c0,0.1,0,0.3,0,0.4c-0.2,1.2-1.1,1.9-2.2,1.7c-1-0.1-1.7-1.1-1.6-2.2c0.1-1.7,0.3-3.4,0.5-5.1c0.4-3.4,0.6-6.9,1-10.3
			c0.7-7.1,1.9-14.1,3.6-21c0.2-0.7,0.4-1.3,0.8-1.9c1-1.2,2.5-1.3,3.6-0.1c0.5,0.6,0.8,1.3,1,2.1c1,2.9,1.6,5.9,2,8.9
			c1.3,8.4,2.6,16.8,3.9,25.2c0.2,1.1,0.4,2.3,0.6,3.4C274.3,215.1,274.4,215.5,274.4,215.6z M264.9,182.4
			c-1.4,6.4-2.3,12.9-2.9,19.4c-0.1,0.8,0.1,0.9,0.9,0.9c1.3-0.1,2.7-0.2,4-0.3c1.4-0.1,1.4-0.2,1.2-1.7c-0.1-0.4-0.1-0.9-0.2-1.3
			c-0.9-5.4-1.5-10.8-2.6-16.1C265.3,183,265.3,182.7,264.9,182.4z"/>
	</g>
</g>
</svg>
